<?xml version="1.0" encoding="utf-8"?>
<!-- Generator: Adobe Illustrator 27.2.0, SVG Export Plug-In . SVG Version: 6.00 Build 0)  -->
<svg version="1.1" id="Layer_1" xmlns="http://www.w3.org/2000/svg" xmlns:xlink="http://www.w3.org/1999/xlink" x="0px" y="0px"
	 width="632px" height="147.5px" viewBox="0 0 632 147.5" enable-background="new 0 0 632 147.5" xml:space="preserve">
<g>
	<path fill="#003D36" d="M206.5,30.4l0.9,13.6h-0.9c-1.2-4.1-3-7-5.2-8.8c-2.3-1.8-5-2.7-8.2-2.7c-2.7,0-5.1,0.7-7.2,2
		c-2.2,1.4-3.8,3.5-5.1,6.5c-1.2,3-1.8,6.6-1.8,11c0,3.6,0.6,6.8,1.7,9.4s2.9,4.7,5.3,6.1c2.3,1.4,5,2.1,8,2.1
		c2.6,0,4.9-0.6,6.9-1.7c2-1.1,4.2-3.3,6.6-6.6l0.9,0.6c-2,3.6-4.4,6.2-7,7.8c-2.7,1.7-5.9,2.5-9.6,2.5c-6.6,0-11.8-2.5-15.4-7.4
		c-2.7-3.7-4.1-8-4.1-13c0-4,0.9-7.7,2.7-11c1.8-3.4,4.3-6,7.4-7.8s6.6-2.8,10.3-2.8c2.9,0,5.8,0.7,8.6,2.1c0.8,0.4,1.4,0.7,1.8,0.7
		c0.5,0,1-0.2,1.4-0.6c0.5-0.5,0.9-1.3,1.1-2.2H206.5z"/>
	<path fill="#003D36" d="M232.6,30.4c5.2,0,9.7,2,13.5,5.9c3.8,4,5.7,8.9,5.7,14.8c0,6.1-1.9,11.2-5.8,15.2c-3.8,4-8.5,6-14,6
		c-5.5,0-10.2-2-13.9-5.9c-3.8-3.9-5.6-9-5.6-15.2c0-6.4,2.2-11.6,6.5-15.6C222.9,32.1,227.4,30.4,232.6,30.4z M232.1,32.5
		c-3.6,0-6.5,1.3-8.6,4c-2.7,3.3-4.1,8.2-4.1,14.6c0,6.5,1.4,11.6,4.2,15.1c2.1,2.7,5,4,8.5,4c3.8,0,6.9-1.5,9.3-4.4
		c2.5-2.9,3.7-7.6,3.7-13.9c0-6.9-1.4-12-4.1-15.4C238.9,33.9,235.9,32.5,232.1,32.5z"/>
	<path fill="#003D36" d="M253.4,31.3h10.9l24.5,30.1V38.2c0-2.5-0.3-4-0.8-4.6c-0.7-0.8-1.9-1.2-3.5-1.2h-1.4v-1.1h14v1.1h-1.4
		c-1.7,0-2.9,0.5-3.6,1.5c-0.4,0.6-0.7,2.1-0.7,4.3V72h-1.1l-26.5-32.3v24.7c0,2.5,0.3,4,0.8,4.6c0.7,0.8,1.9,1.2,3.5,1.2h1.4v1.1
		h-14v-1.1h1.4c1.7,0,2.9-0.5,3.6-1.5c0.4-0.6,0.7-2.1,0.7-4.3V36.5c-1.2-1.4-2-2.3-2.6-2.7c-0.6-0.4-1.5-0.8-2.6-1.2
		c-0.6-0.2-1.4-0.3-2.6-0.3V31.3z"/>
	<path fill="#003D36" d="M333.1,31.3l0.4,9.4h-1.1c-0.2-1.7-0.5-2.8-0.9-3.6c-0.6-1.1-1.4-2-2.4-2.5c-1-0.5-2.4-0.8-4-0.8h-5.7v30.7
		c0,2.5,0.3,4,0.8,4.6c0.7,0.8,1.9,1.2,3.5,1.2h1.4v1.1h-17v-1.1h1.4c1.7,0,2.9-0.5,3.6-1.5c0.4-0.6,0.7-2.1,0.7-4.3V33.8h-4.8
		c-1.9,0-3.2,0.1-4,0.4c-1,0.4-1.9,1.1-2.6,2.2c-0.7,1.1-1.2,2.5-1.3,4.3h-1.1l0.5-9.4H333.1z"/>
	<path fill="#003D36" d="M357.9,58h-15.5l-2.7,6.3c-0.7,1.6-1,2.7-1,3.5c0,0.6,0.3,1.1,0.9,1.6c0.6,0.5,1.8,0.8,3.8,0.9v1.1h-12.6
		v-1.1c1.7-0.3,2.8-0.7,3.3-1.2c1-0.9,2.1-2.9,3.3-5.8l14.1-33h1l14,33.4c1.1,2.7,2.1,4.4,3.1,5.2c0.9,0.8,2.2,1.2,3.8,1.3v1.1
		h-15.8v-1.1c1.6-0.1,2.7-0.3,3.2-0.8c0.6-0.5,0.8-1,0.8-1.7c0-0.9-0.4-2.2-1.2-4.1L357.9,58z M357,55.8l-6.8-16.2l-7,16.2H357z"/>
	<path fill="#003D36" d="M401.9,50.9c2.8,0.6,4.9,1.5,6.2,2.8c1.9,1.8,2.9,4,2.9,6.7c0,2-0.6,3.9-1.9,5.7s-3,3.2-5.2,4
		c-2.2,0.8-5.6,1.3-10.1,1.3h-18.9v-1.1h1.5c1.7,0,2.9-0.5,3.6-1.6c0.5-0.7,0.7-2.2,0.7-4.4V38.4c0-2.5-0.3-4.1-0.9-4.7
		c-0.8-0.9-1.9-1.3-3.4-1.3h-1.5v-1.1h17.3c3.2,0,5.8,0.2,7.8,0.7c3,0.7,5.2,2,6.8,3.8c1.6,1.8,2.3,3.9,2.3,6.2c0,2-0.6,3.8-1.8,5.4
		C406.1,49,404.3,50.1,401.9,50.9z M386.4,49.3c0.7,0.1,1.6,0.2,2.5,0.3c0.9,0.1,2,0.1,3.1,0.1c2.9,0,5-0.3,6.5-0.9
		c1.4-0.6,2.6-1.6,3.3-2.9c0.8-1.3,1.2-2.7,1.2-4.2c0-2.3-1-4.3-2.9-6c-1.9-1.7-4.7-2.5-8.4-2.5c-2,0-3.7,0.2-5.3,0.7V49.3z
		 M386.4,68.5c2.3,0.5,4.5,0.8,6.8,0.8c3.6,0,6.3-0.8,8.2-2.4c1.9-1.6,2.8-3.6,2.8-6c0-1.6-0.4-3.1-1.3-4.5
		c-0.8-1.4-2.2-2.6-4.1-3.4c-1.9-0.8-4.3-1.2-7.1-1.2c-1.2,0-2.3,0-3.1,0.1c-0.9,0-1.6,0.1-2.1,0.2V68.5z"/>
	<path fill="#003D36" d="M433,70.3v1.1h-17.2v-1.1h1.4c1.7,0,2.9-0.5,3.6-1.5c0.5-0.6,0.7-2.1,0.7-4.6V38.4c0-2-0.1-3.4-0.4-4
		c-0.2-0.5-0.6-0.9-1.2-1.3c-0.9-0.5-1.8-0.7-2.7-0.7h-1.4v-1.1H433v1.1h-1.4c-1.6,0-2.8,0.5-3.6,1.5c-0.5,0.6-0.7,2.1-0.7,4.6v25.9
		c0,2,0.1,3.4,0.4,4c0.2,0.5,0.6,0.9,1.2,1.3c0.8,0.5,1.7,0.7,2.7,0.7H433z"/>
	<path fill="#003D36" d="M469.3,60.3l1,0.2l-3.4,10.9h-31.1v-1.1h1.5c1.7,0,2.9-0.6,3.6-1.7c0.4-0.6,0.6-2.1,0.6-4.4V38.4
		c0-2.5-0.3-4.1-0.8-4.7c-0.8-0.9-1.9-1.3-3.4-1.3h-1.5v-1.1h18.2v1.1c-2.1,0-3.6,0.2-4.5,0.6c-0.9,0.4-1.4,0.9-1.8,1.6
		c-0.3,0.6-0.5,2.1-0.5,4.5v25.2c0,1.6,0.2,2.8,0.5,3.4c0.2,0.4,0.6,0.7,1.1,0.9c0.5,0.2,2,0.3,4.6,0.3h2.9c3.1,0,5.2-0.2,6.5-0.7
		c1.2-0.5,2.4-1.3,3.4-2.4C467.2,64.6,468.2,62.8,469.3,60.3z"/>
	<path fill="#003D36" d="M490.2,70.3v1.1H473v-1.1h1.4c1.7,0,2.9-0.5,3.6-1.5c0.5-0.6,0.7-2.1,0.7-4.6V38.4c0-2-0.1-3.4-0.4-4
		c-0.2-0.5-0.6-0.9-1.2-1.3c-0.9-0.5-1.8-0.7-2.7-0.7H473v-1.1h17.2v1.1h-1.4c-1.6,0-2.8,0.5-3.6,1.5c-0.5,0.6-0.7,2.1-0.7,4.6v25.9
		c0,2,0.1,3.4,0.4,4c0.2,0.5,0.6,0.9,1.2,1.3c0.8,0.5,1.7,0.7,2.7,0.7H490.2z"/>
	<path fill="#003D36" d="M492.7,71.4v-1.1h1.5c1.7,0,2.9-0.5,3.6-1.6c0.4-0.7,0.7-2.1,0.7-4.4V38.4c0-2.5-0.3-4.1-0.8-4.7
		c-0.8-0.9-1.9-1.3-3.4-1.3h-1.5v-1.1h16.3c6,0,10.6,0.7,13.7,2c3.1,1.4,5.6,3.6,7.5,6.8c1.9,3.2,2.9,6.8,2.9,11
		c0,5.6-1.7,10.2-5.1,14c-3.8,4.2-9.6,6.3-17.4,6.3H492.7z M504.2,68.5c2.5,0.6,4.6,0.8,6.3,0.8c4.6,0,8.4-1.6,11.4-4.8
		c3-3.2,4.5-7.6,4.5-13.1c0-5.5-1.5-9.9-4.5-13.1c-3-3.2-6.9-4.8-11.6-4.8c-1.8,0-3.8,0.3-6.1,0.9V68.5z"/>
	<path fill="#003D36" d="M563.2,58h-15.5l-2.7,6.3c-0.7,1.6-1,2.7-1,3.5c0,0.6,0.3,1.1,0.9,1.6c0.6,0.5,1.8,0.8,3.8,0.9v1.1h-12.6
		v-1.1c1.7-0.3,2.8-0.7,3.3-1.2c1-0.9,2.1-2.9,3.3-5.8l14.1-33h1l14,33.4c1.1,2.7,2.1,4.4,3.1,5.2c0.9,0.8,2.2,1.2,3.8,1.3v1.1
		h-15.8v-1.1c1.6-0.1,2.7-0.3,3.2-0.8s0.8-1,0.8-1.7c0-0.9-0.4-2.2-1.2-4.1L563.2,58z M562.4,55.8l-6.8-16.2l-7,16.2H562.4z"/>
	<path fill="#003D36" d="M580.3,71.4v-1.1h1.5c1.7,0,2.9-0.5,3.6-1.6c0.4-0.7,0.7-2.1,0.7-4.4V38.4c0-2.5-0.3-4.1-0.8-4.7
		c-0.8-0.9-1.9-1.3-3.4-1.3h-1.5v-1.1h16.3c6,0,10.6,0.7,13.7,2c3.1,1.4,5.6,3.6,7.5,6.8c1.9,3.2,2.9,6.8,2.9,11
		c0,5.6-1.7,10.2-5.1,14c-3.8,4.2-9.6,6.3-17.4,6.3H580.3z M591.7,68.5c2.5,0.6,4.6,0.8,6.3,0.8c4.6,0,8.4-1.6,11.4-4.8
		c3-3.2,4.5-7.6,4.5-13.1c0-5.5-1.5-9.9-4.5-13.1c-3-3.2-6.9-4.8-11.6-4.8c-1.8,0-3.8,0.3-6.1,0.9V68.5z"/>
</g>
<g>
	<path fill="#003D36" d="M252.5,117.6c-0.7,1.2-1.5,2.3-2.5,3.1c-1,0.9-2.1,1.5-3.4,2c-1.3,0.5-2.6,0.7-4.1,0.7
		c-1.6,0-3.1-0.3-4.5-0.9c-1.4-0.6-2.7-1.5-3.8-2.6c-0.8-0.8-1.3-1.5-1.8-2.3c-0.4-0.8-0.7-1.7-0.9-2.8c-0.2-1-0.3-2.3-0.4-3.7
		c0-1.4,0-3,0-4.9s0-3.5,0-4.9c0-1.4,0.1-2.6,0.4-3.6c0.2-1,0.5-2,0.9-2.8c0.4-0.8,1-1.6,1.8-2.4c1.1-1.1,2.4-2,3.8-2.6
		c1.4-0.6,3-0.9,4.5-0.9c1.5,0,2.9,0.2,4.1,0.7c1.3,0.5,2.4,1.1,3.4,2c1,0.9,1.8,1.9,2.4,3.1c0.7,1.2,1.1,2.6,1.4,4.1h-2.6
		c-0.5-2.3-1.5-4.2-3.1-5.5c-1.5-1.4-3.4-2-5.7-2c-1.2,0-2.3,0.2-3.4,0.7c-1.1,0.4-2.1,1.1-2.9,1.9c-0.6,0.6-1.1,1.2-1.4,1.9
		c-0.3,0.7-0.6,1.5-0.8,2.4c-0.2,0.9-0.3,2-0.3,3.3s-0.1,2.8-0.1,4.6s0,3.3,0.1,4.6s0.2,2.4,0.3,3.3c0.2,0.9,0.4,1.7,0.8,2.4
		c0.3,0.7,0.8,1.3,1.4,1.9c0.8,0.9,1.8,1.5,2.9,1.9c1.1,0.4,2.2,0.7,3.4,0.7c2.2,0,4.2-0.7,5.7-2c1.6-1.4,2.6-3.2,3.1-5.5h2.5
		C253.7,115,253.2,116.4,252.5,117.6z"/>
	<path fill="#003D36" d="M293.8,111.1c0,1.4-0.1,2.6-0.4,3.7c-0.2,1-0.5,2-0.9,2.8s-1,1.6-1.8,2.3c-1.1,1.1-2.4,2-3.8,2.6
		c-1.4,0.6-3,0.9-4.5,0.9c-1.6,0-3.1-0.3-4.5-0.9c-1.4-0.6-2.7-1.5-3.8-2.6c-0.8-0.8-1.3-1.5-1.8-2.3c-0.4-0.8-0.7-1.7-0.9-2.8
		c-0.2-1-0.3-2.3-0.4-3.7c0-1.4,0-3,0-4.9s0-3.5,0-4.9c0-1.4,0.1-2.6,0.4-3.6c0.2-1,0.5-2,0.9-2.8c0.4-0.8,1-1.6,1.8-2.4
		c1.1-1.1,2.4-2,3.8-2.6c1.4-0.6,3-0.9,4.5-0.9c1.6,0,3.1,0.3,4.5,0.9c1.4,0.6,2.7,1.5,3.8,2.6c0.7,0.8,1.3,1.5,1.8,2.4
		c0.4,0.8,0.7,1.8,0.9,2.8c0.2,1,0.3,2.3,0.4,3.6c0,1.4,0,3,0,4.9S293.8,109.7,293.8,111.1z M291.3,101.6c0-1.3-0.2-2.4-0.3-3.3
		c-0.2-0.9-0.4-1.7-0.8-2.4c-0.3-0.7-0.8-1.3-1.4-1.9c-0.8-0.9-1.8-1.5-2.9-1.9c-1.1-0.4-2.2-0.7-3.4-0.7c-1.2,0-2.3,0.2-3.4,0.7
		c-1.1,0.4-2.1,1.1-2.9,1.9c-0.6,0.6-1.1,1.2-1.4,1.9c-0.3,0.7-0.6,1.5-0.8,2.4c-0.2,0.9-0.3,2-0.3,3.3s-0.1,2.8-0.1,4.6
		s0,3.3,0.1,4.6s0.2,2.4,0.3,3.3c0.2,0.9,0.4,1.7,0.8,2.4c0.3,0.7,0.8,1.3,1.4,1.9c0.8,0.9,1.8,1.5,2.9,1.9c1.1,0.4,2.2,0.7,3.4,0.7
		c1.2,0,2.3-0.2,3.4-0.7c1.1-0.4,2.1-1.1,2.9-1.9c0.6-0.6,1.1-1.2,1.4-1.9c0.3-0.7,0.6-1.5,0.8-2.4c0.2-0.9,0.3-2,0.3-3.3
		s0.1-2.8,0.1-4.6S291.3,102.8,291.3,101.6z"/>
	<path fill="#003D36" d="M329.1,120.8c-2,1.7-4.8,2.5-8.2,2.5c-1.2,0-2.4-0.1-3.4-0.3c-1-0.2-2-0.4-2.9-0.8
		c-0.9-0.4-1.7-0.8-2.5-1.4c-0.8-0.6-1.6-1.2-2.3-2l1.8-1.8c0.8,0.8,1.5,1.4,2.2,1.9c0.7,0.5,1.4,0.9,2.2,1.2
		c0.7,0.3,1.5,0.5,2.4,0.7c0.8,0.1,1.7,0.2,2.7,0.2c2.7,0,4.7-0.6,6.3-1.8c1.5-1.2,2.3-2.9,2.3-5.1c0-2.1-0.6-3.6-1.8-4.7
		c-0.3-0.3-0.6-0.5-0.9-0.7c-0.3-0.2-0.6-0.3-1-0.5c-0.4-0.1-0.8-0.2-1.2-0.4c-0.5-0.1-1-0.2-1.7-0.3l-3.9-0.6
		c-2.5-0.4-4.5-1.2-6-2.5c-1.8-1.5-2.6-3.6-2.6-6.2c0-2.8,0.9-5.1,2.8-6.8c1.8-1.7,4.4-2.5,7.6-2.5c2.1,0,3.8,0.3,5.3,0.9
		c1.5,0.6,2.9,1.5,4.3,2.7l-1.6,1.7c-0.5-0.5-1.1-0.9-1.6-1.3c-0.5-0.4-1.1-0.7-1.7-1c-0.6-0.3-1.3-0.5-2.1-0.6
		c-0.8-0.2-1.7-0.2-2.7-0.2c-2.4,0-4.3,0.6-5.7,1.9s-2,3-2,5.1c0,2,0.6,3.4,1.7,4.4c0.6,0.5,1.3,0.9,2.2,1.3
		c0.9,0.4,1.8,0.6,2.7,0.8l3.6,0.6c0.8,0.1,1.5,0.3,2.1,0.4c0.6,0.1,1.1,0.3,1.6,0.5c0.5,0.2,0.9,0.4,1.2,0.6
		c0.4,0.2,0.7,0.5,1.1,0.8c0.9,0.8,1.6,1.7,2.1,2.8c0.5,1.1,0.8,2.4,0.8,3.7C332.1,116.9,331.1,119.1,329.1,120.8z"/>
	<path fill="#003D36" d="M358.4,91.6v31.5h-2.5V91.6h-9.9v-2.3h22.4v2.3H358.4z"/>
	<path fill="#003D36" d="M401.4,123.1l-2.9-8.2H383l-2.9,8.2h-2.7l12.3-33.8h2.2l12.3,33.8H401.4z M390.7,92.7l-7,19.9h14
		L390.7,92.7z"/>
	<path fill="#003D36" d="M460.9,123.1l-8-15.6h-9.2v15.6h-2.5V89.3H454c1.3,0,2.6,0.2,3.8,0.6c1.2,0.4,2.2,1,3,1.7
		c0.9,0.8,1.5,1.7,2,2.8s0.7,2.4,0.7,3.9c0,2.5-0.7,4.6-2.1,6.1c-1.4,1.6-3.3,2.6-5.6,3l8.1,15.6H460.9z M460.5,95.4
		c-0.4-0.9-0.9-1.6-1.5-2.1s-1.4-1-2.3-1.3s-1.9-0.4-3-0.4h-9.8v13.7h9.8c1.1,0,2-0.1,3-0.4c0.9-0.3,1.7-0.7,2.3-1.3
		s1.2-1.3,1.5-2.1c0.4-0.9,0.5-1.9,0.5-3C461,97.2,460.8,96.2,460.5,95.4z"/>
	<path fill="#003D36" d="M481.7,123.1V89.3h2.5v33.8H481.7z"/>
	<path fill="#003D36" d="M524.3,117.6c-0.7,1.2-1.5,2.3-2.5,3.1c-1,0.9-2.1,1.5-3.4,2c-1.3,0.5-2.6,0.7-4.1,0.7
		c-1.6,0-3.1-0.3-4.5-0.9c-1.4-0.6-2.7-1.5-3.8-2.6c-0.8-0.8-1.3-1.5-1.8-2.3s-0.7-1.7-0.9-2.8c-0.2-1-0.3-2.3-0.4-3.7
		c0-1.4,0-3,0-4.9s0-3.5,0-4.9s0.1-2.6,0.4-3.6c0.2-1,0.5-2,0.9-2.8c0.4-0.8,1-1.6,1.8-2.4c1.1-1.1,2.4-2,3.8-2.6
		c1.4-0.6,3-0.9,4.5-0.9c1.5,0,2.9,0.2,4.1,0.7c1.3,0.5,2.4,1.1,3.4,2c1,0.9,1.8,1.9,2.4,3.1c0.7,1.2,1.1,2.6,1.4,4.1h-2.6
		c-0.5-2.3-1.5-4.2-3.1-5.5c-1.5-1.4-3.4-2-5.7-2c-1.2,0-2.3,0.2-3.4,0.7c-1.1,0.4-2.1,1.1-2.9,1.9c-0.6,0.6-1.1,1.2-1.4,1.9
		s-0.6,1.5-0.8,2.4c-0.2,0.9-0.3,2-0.3,3.3s-0.1,2.8-0.1,4.6s0,3.3,0.1,4.6s0.2,2.4,0.3,3.3c0.2,0.9,0.4,1.7,0.8,2.4
		c0.3,0.7,0.8,1.3,1.4,1.9c0.8,0.9,1.8,1.5,2.9,1.9c1.1,0.4,2.2,0.7,3.4,0.7c2.2,0,4.2-0.7,5.7-2c1.6-1.4,2.6-3.2,3.1-5.5h2.5
		C525.4,115,524.9,116.4,524.3,117.6z"/>
	<path fill="#003D36" d="M563.2,123.1l-2.9-8.2h-15.6l-2.9,8.2h-2.7l12.3-33.8h2.2l12.3,33.8H563.2z M552.5,92.7l-7,19.9h14
		L552.5,92.7z"/>
</g>
<path fill="#036D3B" d="M108.8,5H55.2c-8.1,0-15.5,4.3-19.5,11.3L8.8,62.7c-4,7-4,15.6,0,22.6l26.8,46.4c4,7,11.5,11.3,19.5,11.3
	h53.6c8.1,0,15.5-4.3,19.5-11.3l26.8-46.4c4-7,4-15.6,0-22.6l-26.8-46.4C124.3,9.3,116.9,5,108.8,5z"/>
<g>
	<path fill="#FFFFFF" d="M94.9,63.2c-1-3.4-2.2-6.5-3.8-9.4c-1.6-2.9-3.5-5.4-5.6-7.5c-2.2-2.1-4.7-3.7-7.5-4.9
		c-2.8-1.2-6-1.8-9.6-1.8c-4.6,0-8.4,0.9-11.6,2.7c-3.2,1.8-5.8,4.3-7.8,7.4c-2,3.1-3.5,6.7-4.4,10.7c-0.9,4.1-1.4,8.4-1.4,12.9
		s0.6,8.8,1.8,12.9c1.2,4.1,2.9,7.7,5.2,10.8c2.3,3.1,5.2,5.6,8.7,7.4c3.5,1.8,7.5,2.8,12.1,2.8c6.8,0,12.8-1.8,17.7-5.3
		c5-3.5,9.4-8.4,13.2-14.5l2.8,2.3c-2.5,3.8-5,7.2-7.5,10.2c-2.5,2.9-5.2,5.4-8.2,7.5c-2.9,2-6.1,3.6-9.6,4.6
		c-3.5,1.1-7.4,1.6-11.7,1.6c-4.9,0-9.6-1-14-2.9s-8.3-4.6-11.6-8c-3.3-3.4-5.9-7.5-7.9-12.3c-2-4.8-2.9-10-2.9-15.8
		c0-5.7,1-11,2.9-15.8c2-4.8,4.6-8.9,7.9-12.3c3.3-3.4,7.2-6.1,11.6-8s9.1-2.9,14-2.9c2.7,0,5.3,0.2,7.6,0.5
		c2.4,0.3,4.6,0.7,6.8,1.1c2.2,0.4,4.3,0.8,6.3,1.1c2,0.4,4,0.6,6,0.7c0,1.6,0.1,3.4,0.2,5.5c0.1,2.1,0.3,4.3,0.5,6.5
		c0.2,2.2,0.4,4.4,0.7,6.6c0.2,2.1,0.4,4,0.7,5.6H94.9z"/>
</g>
<g>
	<path fill="#FFFFFF" d="M126.9,63.2c-1-3.4-2.2-6.5-3.8-9.4c-1.6-2.9-3.5-5.4-5.6-7.5c-2.2-2.1-4.7-3.7-7.5-4.9
		c-2.8-1.2-6-1.8-9.6-1.8c-4.6,0-8.4,0.9-11.6,2.7c-3.2,1.8-5.8,4.3-7.8,7.4c-2,3.1-3.5,6.7-4.4,10.7c-0.9,4.1-1.4,8.4-1.4,12.9
		s0.6,8.8,1.8,12.9c1.2,4.1,2.9,7.7,5.2,10.8c2.3,3.1,5.2,5.6,8.7,7.4c3.5,1.8,7.5,2.8,12.1,2.8c6.8,0,12.8-1.8,17.7-5.3
		c5-3.5,9.4-8.4,13.2-14.5l2.8,2.3c-2.5,3.8-5,7.2-7.5,10.2c-2.5,2.9-5.2,5.4-8.2,7.5c-2.9,2-6.1,3.6-9.6,4.6
		c-3.5,1.1-7.4,1.6-11.7,1.6c-4.9,0-9.6-1-14-2.9s-8.3-4.6-11.6-8c-3.3-3.4-5.9-7.5-7.9-12.3c-2-4.8-2.9-10-2.9-15.8
		c0-5.7,1-11,2.9-15.8c2-4.8,4.6-8.9,7.9-12.3c3.3-3.4,7.2-6.1,11.6-8s9.1-2.9,14-2.9c2.7,0,5.3,0.2,7.6,0.5
		c2.4,0.3,4.6,0.7,6.8,1.1c2.2,0.4,4.3,0.8,6.3,1.1c2,0.4,4,0.6,6,0.7c0,1.6,0.1,3.4,0.2,5.5c0.1,2.1,0.3,4.3,0.5,6.5
		c0.2,2.2,0.4,4.4,0.7,6.6c0.2,2.1,0.4,4,0.7,5.6H126.9z"/>
</g>
<line fill="none" stroke="#003D36" stroke-miterlimit="10" x1="174.5" y1="107.3" x2="217.2" y2="107.3"/>
<line fill="none" stroke="#003D36" stroke-miterlimit="10" x1="578" y1="107.8" x2="620.7" y2="107.8"/>
</svg>
