<?xml version="1.0" encoding="UTF-8"?>
<svg id="Layer_1" xmlns="http://www.w3.org/2000/svg" width="410.2" height="95.9" version="1.1" viewBox="0 0 410.2 95.9">
  <!-- Generator: Adobe Illustrator 29.0.0, SVG Export Plug-In . SVG Version: 2.1.0 Build 186)  -->
  <defs>
    <style>
      .st0 {
        fill: none;
        stroke: #fff;
        stroke-miterlimit: 10;
      }

      .st1 {
        fill: #fff;
      }
    </style>
  </defs>
  <g>
    <path class="st1" d="M133.9,16.9l.6,9.1h-.6c-.8-2.7-2-4.7-3.5-5.9-1.5-1.2-3.3-1.8-5.5-1.8s-3.4.5-4.8,1.3c-1.5.9-2.5,2.3-3.4,4.3-.8,2-1.2,4.4-1.2,7.3s.4,4.5,1.1,6.3c.7,1.7,1.9,3.1,3.5,4.1,1.5.9,3.3,1.4,5.3,1.4s3.3-.4,4.6-1.1,2.8-2.2,4.4-4.4l.6.4c-1.3,2.4-2.9,4.1-4.7,5.2-1.8,1.1-3.9,1.7-6.4,1.7-4.4,0-7.9-1.7-10.3-4.9-1.8-2.5-2.7-5.3-2.7-8.7s.6-5.1,1.8-7.3c1.2-2.3,2.9-4,4.9-5.2s4.4-1.9,6.9-1.9,3.9.5,5.7,1.4c.5.3.9.5,1.2.5s.7-.1.9-.4c.3-.3.6-.9.7-1.5h.6q0,.1,0,.1Z"/>
    <path class="st1" d="M151.3,16.9c3.5,0,6.5,1.3,9,3.9,2.5,2.7,3.8,5.9,3.8,9.9s-1.3,7.5-3.9,10.1c-2.5,2.7-5.7,4-9.3,4s-6.8-1.3-9.3-3.9c-2.5-2.6-3.7-6-3.7-10.1s1.5-7.7,4.3-10.4c2.6-2.3,5.6-3.5,9.1-3.5ZM150.9,18.3c-2.4,0-4.3.9-5.7,2.7-1.8,2.2-2.7,5.5-2.7,9.7s.9,7.7,2.8,10.1c1.4,1.8,3.3,2.7,5.7,2.7s4.6-1,6.2-2.9c1.7-1.9,2.5-5.1,2.5-9.3s-.9-8-2.7-10.3c-1.4-1.7-3.4-2.7-5.9-2.7h0Z"/>
    <path class="st1" d="M165.1,17.5h7.3l16.3,20.1v-15.5c0-1.7-.2-2.7-.5-3.1-.5-.5-1.3-.8-2.3-.8h-.9v-.7h9.3v.7h-.9c-1.1,0-1.9.3-2.4,1-.3.4-.5,1.4-.5,2.9v22.5h-.7l-17.7-21.5v16.5c0,1.7.2,2.7.5,3.1.5.5,1.3.8,2.3.8h.9v.7h-9.3v-.7h.9c1.1,0,1.9-.3,2.4-1,.3-.4.5-1.4.5-2.9v-18.6c-.8-.9-1.3-1.5-1.7-1.8s-1-.5-1.7-.8c-.4-.1-.9-.2-1.7-.2v-.7h0Z"/>
    <path class="st1" d="M218.3,17.5l.3,6.3h-.7c-.1-1.1-.3-1.9-.6-2.4-.4-.7-.9-1.3-1.6-1.7s-1.6-.5-2.7-.5h-3.8v20.5c0,1.7.2,2.7.5,3.1.5.5,1.3.8,2.3.8h.9v.7h-11.3v-.7h.9c1.1,0,1.9-.3,2.4-1,.3-.4.5-1.4.5-2.9v-20.5h-3.2c-1.3,0-2.1,0-2.7.3-.7.3-1.3.7-1.7,1.5-.5.7-.8,1.7-.9,2.9h-.7l.3-6.3s21.7,0,21.7,0Z"/>
    <path class="st1" d="M234.8,35.4h-10.3l-1.8,4.2c-.5,1.1-.7,1.8-.7,2.3s.2.7.6,1.1,1.2.5,2.5.6v.7h-8.4v-.7c1.1-.2,1.9-.5,2.2-.8.7-.6,1.4-1.9,2.2-3.9l9.4-22h.7l9.3,22.3c.7,1.8,1.4,2.9,2.1,3.5.6.5,1.5.8,2.5.9v.7h-10.5v-.7c1.1,0,1.8-.2,2.1-.5.4-.3.5-.7.5-1.1s-.3-1.5-.8-2.7l-1.7-3.7h0ZM234.2,33.9l-4.5-10.8-4.7,10.8h9.2Z"/>
    <path class="st1" d="M264.2,30.6c1.9.4,3.3,1,4.1,1.9,1.3,1.2,1.9,2.7,1.9,4.5s-.4,2.6-1.3,3.8-2,2.1-3.5,2.7-3.7.9-6.7.9h-12.6v-.7h1c1.1,0,1.9-.3,2.4-1.1.3-.5.5-1.5.5-2.9v-17.3c0-1.7-.2-2.7-.6-3.1-.5-.6-1.3-.9-2.3-.9h-1v-.7h11.5c2.1,0,3.9.1,5.2.5,2,.5,3.5,1.3,4.5,2.5,1.1,1.2,1.5,2.6,1.5,4.1s-.4,2.5-1.2,3.6c-.8,1.1-2,1.8-3.6,2.3ZM253.9,29.5c.5,0,1.1.1,1.7.2s1.3,0,2.1,0c1.9,0,3.3-.2,4.3-.6.9-.4,1.7-1.1,2.2-1.9.5-.9.8-1.8.8-2.8,0-1.5-.7-2.9-1.9-4s-3.1-1.7-5.6-1.7-2.5.1-3.5.5v10.3h0ZM253.9,42.4c1.5.3,3,.5,4.5.5,2.4,0,4.2-.5,5.5-1.6,1.3-1.1,1.9-2.4,1.9-4s-.3-2.1-.9-3c-.5-.9-1.5-1.7-2.7-2.3-1.3-.5-2.9-.8-4.7-.8h-2.1c-.6,0-1.1,0-1.4.1v10.9h0Z"/>
    <path class="st1" d="M284.9,43.6v.7h-11.5v-.7h.9c1.1,0,1.9-.3,2.4-1,.3-.4.5-1.4.5-3.1v-17.2c0-1.3,0-2.3-.3-2.7-.1-.3-.4-.6-.8-.9-.6-.3-1.2-.5-1.8-.5h-.9v-.7h11.5v.7h-.9c-1.1,0-1.9.3-2.4,1-.3.4-.5,1.4-.5,3.1v17.3c0,1.3,0,2.3.3,2.7.1.3.4.6.8.9.5.3,1.1.5,1.8.5h.9Z"/>
    <path class="st1" d="M309.2,36.9h.7c0,.1-2.3,7.4-2.3,7.4h-20.7v-.7h1c1.1,0,1.9-.4,2.4-1.1.3-.4.4-1.4.4-2.9v-17.2c0-1.7-.2-2.7-.5-3.1-.5-.6-1.3-.9-2.3-.9h-1v-.7h12.1v.7c-1.4,0-2.4.1-3,.4-.6.3-.9.6-1.2,1.1-.2.4-.3,1.4-.3,3v16.8c0,1.1.1,1.9.3,2.3.1.3.4.5.7.6.3.1,1.3.2,3.1.2h1.9c2.1,0,3.5-.1,4.3-.5.8-.3,1.6-.9,2.3-1.6.7-.8,1.3-2,2.1-3.7h0Z"/>
    <path class="st1" d="M323.1,43.6v.7h-11.5v-.7h.9c1.1,0,1.9-.3,2.4-1,.3-.4.5-1.4.5-3.1v-17.2c0-1.3,0-2.3-.3-2.7-.1-.3-.4-.6-.8-.9-.6-.3-1.2-.5-1.8-.5h-.9v-.7h11.5v.7h-.9c-1.1,0-1.9.3-2.4,1-.3.4-.5,1.4-.5,3.1v17.3c0,1.3,0,2.3.3,2.7.1.3.4.6.8.9.5.3,1.1.5,1.8.5h.9Z"/>
    <path class="st1" d="M324.8,44.3v-.7h1c1.1,0,1.9-.3,2.4-1.1.3-.5.5-1.4.5-2.9v-17.3c0-1.7-.2-2.7-.5-3.1-.5-.6-1.3-.9-2.3-.9h-1v-.7h10.9c4,0,7.1.5,9.1,1.3,2.1.9,3.7,2.4,5,4.5s1.9,4.5,1.9,7.3-1.1,6.8-3.4,9.3c-2.5,2.8-6.4,4.2-11.6,4.2h-12ZM332.4,42.4c1.7.4,3.1.5,4.2.5,3.1,0,5.6-1.1,7.6-3.2,2-2.1,3-5.1,3-8.7s-1-6.6-3-8.7c-2-2.1-4.6-3.2-7.7-3.2s-2.5.2-4.1.6v22.7Z"/>
    <path class="st1" d="M371.8,35.4h-10.3l-1.8,4.2c-.5,1.1-.7,1.8-.7,2.3s.2.7.6,1.1c.4.3,1.2.5,2.5.6v.7h-8.4v-.7c1.1-.2,1.9-.5,2.2-.8.7-.6,1.4-1.9,2.2-3.9l9.4-22h.7l9.3,22.3c.7,1.8,1.4,2.9,2.1,3.5.6.5,1.5.8,2.5.9v.7h-10.5v-.7c1.1,0,1.8-.2,2.1-.5s.5-.7.5-1.1-.3-1.5-.8-2.7l-1.7-3.7h0ZM371.2,33.9l-4.5-10.8-4.7,10.8h9.2Z"/>
    <path class="st1" d="M383.2,44.3v-.7h1c1.1,0,1.9-.3,2.4-1.1.3-.5.5-1.4.5-2.9v-17.3c0-1.7-.2-2.7-.5-3.1-.5-.6-1.3-.9-2.3-.9h-1v-.7h10.9c4,0,7.1.5,9.1,1.3,2.1.9,3.7,2.4,5,4.5s1.9,4.5,1.9,7.3-1.1,6.8-3.4,9.3c-2.5,2.8-6.4,4.2-11.6,4.2,0,0-12,0-12,0ZM390.8,42.4c1.7.4,3.1.5,4.2.5,3.1,0,5.6-1.1,7.6-3.2,2-2.1,3-5.1,3-8.7s-1-6.6-3-8.7c-2-2.1-4.6-3.2-7.7-3.2s-2.5.2-4.1.6v22.7h0Z"/>
  </g>
  <g>
    <path class="st1" d="M164.5,75.1c-.5.8-1,1.5-1.7,2.1-.7.6-1.4,1-2.3,1.3-.9.3-1.7.5-2.7.5s-2.1-.2-3-.6-1.8-1-2.5-1.7c-.5-.5-.9-1-1.2-1.5-.3-.5-.5-1.1-.6-1.9-.1-.7-.2-1.5-.3-2.5v-6.5c0-.9,0-1.7.3-2.4.1-.7.3-1.3.6-1.9s.7-1.1,1.2-1.6c.7-.7,1.6-1.3,2.5-1.7.9-.4,2-.6,3-.6s1.9.1,2.7.5c.9.3,1.6.7,2.3,1.3s1.2,1.3,1.6,2.1c.5.8.7,1.7.9,2.7h-1.7c-.3-1.5-1-2.8-2.1-3.7-1-.9-2.3-1.3-3.8-1.3s-1.5.1-2.3.5c-.7.3-1.4.7-1.9,1.3-.4.4-.7.8-.9,1.3-.2.5-.4,1-.5,1.6s-.2,1.3-.2,2.2,0,1.9,0,3.1,0,2.2,0,3.1.1,1.6.2,2.2c.1.6.3,1.1.5,1.6.2.5.5.9.9,1.3.5.6,1.2,1,1.9,1.3.7.3,1.5.5,2.3.5,1.5,0,2.8-.5,3.8-1.3,1.1-.9,1.7-2.1,2.1-3.7h1.7c0,1-.3,1.9-.8,2.7h0Z"/>
    <path class="st1" d="M192.1,70.8c0,.9,0,1.7-.3,2.5-.1.7-.3,1.3-.6,1.9s-.7,1.1-1.2,1.5c-.7.7-1.6,1.3-2.5,1.7s-2,.6-3,.6-2.1-.2-3-.6-1.8-1-2.5-1.7c-.5-.5-.9-1-1.2-1.5-.3-.5-.5-1.1-.6-1.9-.1-.7-.2-1.5-.3-2.5v-6.5c0-.9,0-1.7.3-2.4.1-.7.3-1.3.6-1.9s.7-1.1,1.2-1.6c.7-.7,1.6-1.3,2.5-1.7s2-.6,3-.6,2.1.2,3,.6,1.8,1,2.5,1.7c.5.5.9,1,1.2,1.6.3.5.5,1.2.6,1.9.1.7.2,1.5.3,2.4v6.5ZM190.4,64.4c0-.9-.1-1.6-.2-2.2-.1-.6-.3-1.1-.5-1.6-.2-.5-.5-.9-.9-1.3-.5-.6-1.2-1-1.9-1.3s-1.5-.5-2.3-.5-1.5.1-2.3.5c-.7.3-1.4.7-1.9,1.3-.4.4-.7.8-.9,1.3-.2.5-.4,1-.5,1.6-.1.6-.2,1.3-.2,2.2s0,1.9,0,3.1,0,2.2,0,3.1.1,1.6.2,2.2c.1.6.3,1.1.5,1.6.2.5.5.9.9,1.3.5.6,1.2,1,1.9,1.3s1.5.5,2.3.5,1.5-.1,2.3-.5c.7-.3,1.4-.7,1.9-1.3.4-.4.7-.8.9-1.3.2-.5.4-1,.5-1.6.1-.6.2-1.3.2-2.2s0-1.9,0-3.1,0-2.3,0-3.1Z"/>
    <path class="st1" d="M215.6,77.2c-1.3,1.1-3.2,1.7-5.5,1.7s-1.6,0-2.3-.2c-.7-.1-1.3-.3-1.9-.5s-1.1-.5-1.7-.9-1.1-.8-1.5-1.3l1.2-1.2c.5.5,1,.9,1.5,1.3s.9.6,1.5.8c.5.2,1,.3,1.6.5.5,0,1.1.1,1.8.1,1.8,0,3.1-.4,4.2-1.2,1-.8,1.5-1.9,1.5-3.4s-.4-2.4-1.2-3.1c-.2-.2-.4-.3-.6-.5s-.4-.2-.7-.3c-.3,0-.5-.1-.8-.3-.3,0-.7-.1-1.1-.2l-2.6-.4c-1.7-.3-3-.8-4-1.7-1.2-1-1.7-2.4-1.7-4.1s.6-3.4,1.9-4.5c1.2-1.1,2.9-1.7,5.1-1.7s2.5.2,3.5.6,1.9,1,2.9,1.8l-1.1,1.1c-.3-.3-.7-.6-1.1-.9s-.7-.5-1.1-.7-.9-.3-1.4-.4c-.5-.1-1.1-.1-1.8-.1-1.6,0-2.9.4-3.8,1.3s-1.3,2-1.3,3.4.4,2.3,1.1,2.9c.4.3.9.6,1.5.9.6.3,1.2.4,1.8.5l2.4.4c.5,0,1,.2,1.4.3s.7.2,1.1.3.6.3.8.4c.3.1.5.3.7.5.6.5,1.1,1.1,1.4,1.9.3.7.5,1.6.5,2.5-.1,1.9-.8,3.4-2.1,4.5h0Z"/>
    <path class="st1" d="M235.2,57.8v21h-1.7v-21h-6.6v-1.5h14.9v1.5h-6.7Z"/>
    <path class="st1" d="M263.9,78.8l-1.9-5.5h-10.3l-1.9,5.5h-1.8l8.2-22.5h1.5l8.2,22.5s-1.9,0-1.9,0ZM256.7,58.5l-4.7,13.3h9.3l-4.7-13.3Z"/>
    <path class="st1" d="M303.5,78.8l-5.3-10.4h-6.1v10.4h-1.7v-22.5h8.5c.9,0,1.7.1,2.5.4.8.3,1.5.7,2,1.1.6.5,1,1.1,1.3,1.9s.5,1.6.5,2.6c0,1.7-.5,3.1-1.4,4.1-.9,1.1-2.2,1.7-3.7,2l5.4,10.4h-2,0ZM303.3,60.3c-.3-.6-.6-1.1-1-1.4s-.9-.7-1.5-.9-1.3-.3-2-.3h-6.5v9.1h6.5c.7,0,1.3,0,2-.3.6-.2,1.1-.5,1.5-.9s.8-.9,1-1.4c.3-.6.3-1.3.3-2s-.1-1.5-.3-2.1Z"/>
    <path class="st1" d="M317.4,78.8v-22.5h1.7v22.5s-1.7,0-1.7,0Z"/>
    <path class="st1" d="M345.8,75.1c-.5.8-1,1.5-1.7,2.1-.7.6-1.4,1-2.3,1.3-.9.3-1.7.5-2.7.5s-2.1-.2-3-.6-1.8-1-2.5-1.7c-.5-.5-.9-1-1.2-1.5s-.5-1.1-.6-1.9c-.1-.7-.2-1.5-.3-2.5v-6.5c0-.9,0-1.7.3-2.4.1-.7.3-1.3.6-1.9s.7-1.1,1.2-1.6c.7-.7,1.6-1.3,2.5-1.7s2-.6,3-.6,1.9.1,2.7.5c.9.3,1.6.7,2.3,1.3s1.2,1.3,1.6,2.1c.5.8.7,1.7.9,2.7h-1.7c-.3-1.5-1-2.8-2.1-3.7-1-.9-2.3-1.3-3.8-1.3s-1.5.1-2.3.5c-.7.3-1.4.7-1.9,1.3-.4.4-.7.8-.9,1.3s-.4,1-.5,1.6c-.1.6-.2,1.3-.2,2.2s0,1.9,0,3.1,0,2.2,0,3.1.1,1.6.2,2.2c.1.6.3,1.1.5,1.6.2.5.5.9.9,1.3.5.6,1.2,1,1.9,1.3s1.5.5,2.3.5c1.5,0,2.8-.5,3.8-1.3,1.1-.9,1.7-2.1,2.1-3.7h1.7c0,1-.4,1.9-.8,2.7h0Z"/>
    <path class="st1" d="M371.8,78.8l-1.9-5.5h-10.4l-1.9,5.5h-1.8l8.2-22.5h1.5l8.2,22.5h-1.8,0ZM364.6,58.5l-4.7,13.3h9.3l-4.7-13.3Z"/>
  </g>
  <g>
    <path class="st1" d="M40.3,57c-1.3-3.2-1.9-6.7-1.9-10.5s.7-7.3,1.9-10.5c1.3-3.2,3.1-5.9,5.3-8.2,1.1-1.1,2.3-2.1,3.5-3-.3-.1-.6-.3-.9-.4-1.9-.8-4-1.2-6.4-1.2s-5.6.6-7.7,1.8-3.9,2.9-5.2,4.9c-1.3,2.1-2.3,4.5-2.9,7.1-.6,2.7-.9,5.6-.9,8.6s.4,5.9,1.2,8.6,1.9,5.1,3.5,7.2c1.5,2.1,3.5,3.7,5.8,4.9s5,1.9,8.1,1.9,3.3-.2,4.9-.5c-1-.7-1.9-1.6-2.8-2.5-2.2-2.3-3.9-5-5.3-8.2Z"/>
    <path class="st1" d="M99.5,38.5l-17.9-30.9c-2.6-4.7-7.5-7.5-12.9-7.5h-35.8c-5.4,0-10.3,2.9-13,7.5L2,38.5c-2.7,4.7-2.7,10.4,0,15.1l17.9,30.9c2.7,4.7,7.7,7.5,13,7.5h35.8c5.4,0,10.3-2.9,13-7.5l17.9-30.9c2.7-4.7,2.7-10.4,0-15.1h0ZM82.3,63.3c-1.7,1.9-3.5,3.6-5.5,5-1.9,1.3-4.1,2.4-6.4,3.1-2.3.7-4.9,1.1-7.8,1.1s-6.4-.7-9.3-1.9c-.3-.1-.6-.3-.9-.4-1.1.5-2.1.9-3.3,1.3-2.3.7-4.9,1.1-7.8,1.1s-6.4-.7-9.3-1.9-5.5-3.1-7.7-5.3-3.9-5-5.3-8.2-1.9-6.7-1.9-10.5.7-7.3,1.9-10.5c1.3-3.2,3.1-5.9,5.3-8.2,2.2-2.3,4.8-4.1,7.7-5.3,2.9-1.3,6.1-1.9,9.3-1.9s3.5.1,5.1.3c1.6.2,3.1.5,4.5.7,1.1.2,2.1.4,3.1.5,2.7-1.1,5.6-1.6,8.6-1.6s3.5.1,5.1.3c1.6.2,3.1.5,4.5.7,1.5.3,2.9.5,4.2.7,1.3.3,2.7.4,4,.5,0,1.1,0,2.3.1,3.7,0,1.4.2,2.9.3,4.3s.3,2.9.5,4.4c.1,1.4.3,2.7.5,3.7h-1.1c-.7-2.3-1.5-4.3-2.5-6.3-1.1-1.9-2.3-3.6-3.7-5-1.5-1.4-3.1-2.5-5-3.3s-4-1.2-6.4-1.2-2.8.1-4,.4c0,.9,0,1.8.1,2.9,0,1.4.2,2.9.3,4.3s.3,2.9.5,4.4c.1,1.4.3,2.7.5,3.7h-1.1c-.7-2.3-1.5-4.3-2.5-6.3-1.1-1.9-2.3-3.6-3.7-5-.2-.2-.5-.4-.7-.6-.9.9-1.7,1.8-2.3,2.9-1.3,2.1-2.3,4.5-2.9,7.1-.6,2.7-.9,5.6-.9,8.6s.4,5.9,1.2,8.6,1.9,5.1,3.5,7.2c1.1,1.4,2.3,2.7,3.7,3.7.2-.1.4-.3.6-.4,3.3-2.3,6.3-5.6,8.8-9.7l1.9,1.5c-1.7,2.5-3.3,4.8-5,6.8-1.1,1.3-2.2,2.3-3.4,3.4,2.1.9,4.5,1.5,7.3,1.5,4.5,0,8.5-1.2,11.8-3.5,3.3-2.3,6.3-5.6,8.8-9.7l1.9,1.5c-1.7,2.5-3.3,4.8-5,6.8h0Z"/>
  </g>
  <line class="st0" x1="112.5" y1="68.2" x2="141" y2="68.2"/>
  <line class="st0" x1="381.7" y1="68.6" x2="410.1" y2="68.6"/>
</svg>