<svg xmlns="http://www.w3.org/2000/svg" version="1.1" xmlns:xlink="http://www.w3.org/1999/xlink" width="152.2" height="138"><svg id="SvgjsSvg1017" data-name="Layer 1" xmlns="http://www.w3.org/2000/svg" viewBox="0 0 152.2 138">
  <defs>
    <style>
      .cls-1 {
        fill: #fff;
      }

      .cls-2 {
        fill: #036d3b;
      }
    </style>
  </defs>
  <path class="cls-2" d="M103,0h-53.6c-8.1,0-15.5,4.3-19.5,11.3L3,57.7c-4,7-4,15.6,0,22.6l26.8,46.4c4,7,11.5,11.3,19.5,11.3h53.6c8.1,0,15.5-4.3,19.5-11.3l26.8-46.4c4-7,4-15.6,0-22.6l-26.8-46.4c-3.9-7-11.3-11.3-19.4-11.3Z"></path>
  <path class="cls-1" d="M89.1,58.2c-1-3.4-2.2-6.5-3.8-9.4-1.6-2.9-3.5-5.4-5.6-7.5-2.2-2.1-4.7-3.7-7.5-4.9s-6-1.8-9.6-1.8c-4.6,0-8.4.9-11.6,2.7-3.2,1.8-5.8,4.3-7.8,7.4-2,3.1-3.5,6.7-4.4,10.7-.9,4.1-1.4,8.4-1.4,12.9s.6,8.8,1.8,12.9,2.9,7.7,5.2,10.8c2.3,3.1,5.2,5.6,8.7,7.4s7.5,2.8,12.1,2.8c6.8,0,12.8-1.8,17.7-5.3,5-3.5,9.4-8.4,13.2-14.5l2.8,2.3c-2.5,3.8-5,7.2-7.5,10.2-2.5,2.9-5.2,5.4-8.2,7.5-2.9,2-6.1,3.6-9.6,4.6-3.5,1.1-7.4,1.6-11.7,1.6-4.9,0-9.6-1-14-2.9s-8.3-4.6-11.6-8-5.9-7.5-7.9-12.3-2.9-10-2.9-15.8,1-11,2.9-15.8c2-4.8,4.6-8.9,7.9-12.3,3.3-3.4,7.2-6.1,11.6-8s9.1-2.9,14-2.9c2.7,0,5.3.2,7.6.5,2.4.3,4.6.7,6.8,1.1,2.2.4,4.3.8,6.3,1.1,2,.4,4,.6,6,.7,0,1.6.1,3.4.2,5.5s.3,4.3.5,6.5.4,4.4.7,6.6c.2,2.1.4,4,.7,5.6,0,0-1.6,0-1.6,0Z"></path>
  <path class="cls-1" d="M121.1,58.2c-1-3.4-2.2-6.5-3.8-9.4-1.6-2.9-3.5-5.4-5.6-7.5-2.2-2.1-4.7-3.7-7.5-4.9s-6-1.8-9.6-1.8c-4.6,0-8.4.9-11.6,2.7s-5.8,4.3-7.8,7.4c-2,3.1-3.5,6.7-4.4,10.7-.9,4.1-1.4,8.4-1.4,12.9s.6,8.8,1.8,12.9c1.2,4.1,2.9,7.7,5.2,10.8,2.3,3.1,5.2,5.6,8.7,7.4s7.5,2.8,12.1,2.8c6.8,0,12.8-1.8,17.7-5.3,5-3.5,9.4-8.4,13.2-14.5l2.8,2.3c-2.5,3.8-5,7.2-7.5,10.2-2.5,2.9-5.2,5.4-8.2,7.5-2.9,2-6.1,3.6-9.6,4.6-3.5,1.1-7.4,1.6-11.7,1.6-4.9,0-9.6-1-14-2.9s-8.3-4.6-11.6-8c-3.3-3.4-5.9-7.5-7.9-12.3s-2.9-10-2.9-15.8,1-11,2.9-15.8c2-4.8,4.6-8.9,7.9-12.3s7.2-6.1,11.6-8,9.1-2.9,14-2.9c2.7,0,5.3.2,7.6.5,2.4.3,4.6.7,6.8,1.1,2.2.4,4.3.8,6.3,1.1,2,.4,4,.6,6,.7,0,1.6.1,3.4.2,5.5s.3,4.3.5,6.5.4,4.4.7,6.6c.2,2.1.4,4,.7,5.6,0,0-1.6,0-1.6,0Z"></path>
</svg><style>@media (prefers-color-scheme: light) { :root { filter: none; } }
@media (prefers-color-scheme: dark) { :root { filter: none; } }
</style></svg>